{
  "accessors": [
    {
      "bufferView": 1,
      "componentType": 5126,
      "count": 3073,
      "max": [
        1.0869830846786499,
        1.099994421005249,
        1.092896580696106
      ],
      "min": [
        -1.086974024772644,
        -1.099994421005249,
        -1.0929062366485596
      ],
      "type": "VEC3"
    },
    {
      "bufferView": 1,
      "byteOffset": 36876,
      "componentType": 5126,
      "count": 3073,
      "max": [
        0.98387360572814941,
        0.99918437004089355,
        0.99998188018798828
      ],
      "min": [
        -0.98386919498443604,
        -0.99918413162231445,
        -0.99998193979263306
      ],
      "type": "VEC3"
    },
    {
      "bufferView": 2,
      "componentType": 5126,
      "count": 3073,
      "max": [
        0.99344891309738159,
        0.97514802217483521,
        0.98319661617279053,
        1
      ],
      "min": [
        -0.99938470125198364,
        -0.99683034420013428,
        -0.99596101045608521,
        -1
      ],
      "type": "VEC4"
    },
    {
      "bufferView": 0,
      "componentType": 5125,
      "count": 12426,
      "max": [
        3072
      ],
      "min": [
        0
      ],
      "type": "SCALAR"
    },
    {
      "bufferView": 1,
      "byteOffset": 73752,
      "componentType": 5126,
      "count": 8746,
      "max": [
        1.0788648128509521,
        1.0909994840621948,
        1.0814546346664429
      ],
      "min": [
        -1.0788484811782837,
        -1.0909994840621948,
        -1.0814648866653442
      ],
      "type": "VEC3"
    },
    {
      "bufferView": 1,
      "byteOffset": 178704,
      "componentType": 5126,
      "count": 8746,
      "max": [
        0.992015540599823,
        1,
        0.99452602863311768
      ],
      "min": [
        -0.99206691980361938,
        -1,
        -0.99453151226043701
      ],
      "type": "VEC3"
    },
    {
      "bufferView": 2,
      "byteOffset": 49168,
      "componentType": 5126,
      "count": 8746,
      "max": [
        0.99991285800933838,
        0.99997413158416748,
        0.99976813793182373,
        1
      ],
      "min": [
        -0.99967563152313232,
        -0.99950623512268066,
        -0.99970811605453491,
        -1
      ],
      "type": "VEC4"
    },
    {
      "bufferView": 0,
      "byteOffset": 49704,
      "componentType": 5125,
      "count": 42102,
      "max": [
        8745
      ],
      "min": [
        0
      ],
      "type": "SCALAR"
    },
    {
      "bufferView": 1,
      "byteOffset": 283656,
      "componentType": 5126,
      "count": 6334,
      "max": [
        1.0913577079772949,
        1.0999951362609863,
        1.0904116630554199
      ],
      "min": [
        -1.0913459062576294,
        -1.0999951362609863,
        -1.0897419452667236
      ],
      "type": "VEC3"
    },
    {
      "bufferView": 1,
      "byteOffset": 359664,
      "componentType": 5126,
      "count": 6334,
      "max": [
        0.99975383281707764,
        0.99911242723464966,
        0.99994277954101562
      ],
      "min": [
        -0.99975442886352539,
        -0.99911189079284668,
        -0.99994361400604248
      ],
      "type": "VEC3"
    },
    {
      "bufferView": 2,
      "byteOffset": 189104,
      "componentType": 5126,
      "count": 6334,
      "max": [
        0.99343758821487427,
        0.99006295204162598,
        0.99048775434494019,
        1
      ],
      "min": [
        -0.97001945972442627,
        -0.99303334951400757,
        -0.99707001447677612,
        -1
      ],
      "type": "VEC4"
    },
    {
      "bufferView": 0,
      "byteOffset": 218112,
      "componentType": 5125,
      "count": 25392,
      "max": [
        6333
      ],
      "min": [
        0
      ],
      "type": "SCALAR"
    }
  ],
  "asset": {
    "extras": {
      "author": "ingscappatura (https://sketchfab.com/ingscappatura)",
      "license": "CC-BY-NC-4.0 (http://creativecommons.org/licenses/by-nc/4.0/)",
      "source": "https://sketchfab.com/models/5796b62e40984a5bbcc83fe7b1ed831e",
      "title": "Soccerball"
    },
    "generator": "Sketchfab-3.18.7",
    "version": "2.0"
  },
  "bufferViews": [
    {
      "buffer": 0,
      "byteLength": 319680,
      "byteOffset": 0,
      "name": "floatBufferViews",
      "target": 34963
    },
    {
      "buffer": 0,
      "byteLength": 435672,
      "byteOffset": 319680,
      "byteStride": 12,
      "name": "floatBufferViews",
      "target": 34962
    },
    {
      "buffer": 0,
      "byteLength": 290448,
      "byteOffset": 755352,
      "byteStride": 16,
      "name": "floatBufferViews",
      "target": 34962
    }
  ],
  "buffers": [
    {
      "byteLength": 1045800,
      "uri": "scene.bin"
    }
  ],
  "materials": [
    {
      "doubleSided": true,
      "emissiveFactor": [
        0,
        0,
        0
      ],
      "name": "blinn1",
      "pbrMetallicRoughness": {
        "baseColorFactor": [
          0,
          0,
          0,
          1
        ],
        "metallicFactor": 0,
        "roughnessFactor": 0.92074838159999994
      }
    },
    {
      "doubleSided": true,
      "emissiveFactor": [
        0,
        0,
        0
      ],
      "name": "lambert2",
      "pbrMetallicRoughness": {
        "baseColorFactor": [
          0,
          0,
          0,
          1
        ],
        "metallicFactor": 0,
        "roughnessFactor": 0.59999999999999998
      }
    },
    {
      "doubleSided": true,
      "emissiveFactor": [
        0,
        0,
        0
      ],
      "name": "lambert1",
      "pbrMetallicRoughness": {
        "baseColorFactor": [
          1,
          0.9607,
          0.9607,
          1
        ],
        "metallicFactor": 0,
        "roughnessFactor": 0.59999999999999998
      }
    }
  ],
  "meshes": [
    {
      "name": "pSolid2_blinn1_0",
      "primitives": [
        {
          "attributes": {
            "NORMAL": 1,
            "POSITION": 0,
            "TANGENT": 2
          },
          "indices": 3,
          "material": 0,
          "mode": 4
        }
      ]
    },
    {
      "name": "pSolid2_lambert2_0",
      "primitives": [
        {
          "attributes": {
            "NORMAL": 5,
            "POSITION": 4,
            "TANGENT": 6
          },
          "indices": 7,
          "material": 1,
          "mode": 4
        }
      ]
    },
    {
      "name": "pSolid2_lambert1_0",
      "primitives": [
        {
          "attributes": {
            "NORMAL": 9,
            "POSITION": 8,
            "TANGENT": 10
          },
          "indices": 11,
          "material": 2,
          "mode": 4
        }
      ]
    }
  ],
  "nodes": [
    {
      "children": [
        1
      ],
      "name": "RootNode (gltf orientation matrix)",
      "rotation": [
        -0.70710678118654746,
        -0,
        -0,
        0.70710678118654757
      ]
    },
    {
      "children": [
        2
      ],
      "name": "RootNode (model correction matrix)"
    },
    {
      "children": [
        3
      ],
      "matrix": [
        1,
        0,
        0,
        0,
        0,
        0,
        1,
        0,
        0,
        -1,
        0,
        0,
        0,
        0,
        0,
        1
      ],
      "name": "d410573ea93d4e6e9ac18c2519b6500f.fbx"
    },
    {
      "children": [
        4
      ],
      "name": "RootNode"
    },
    {
      "children": [
        5,
        6,
        7
      ],
      "matrix": [
        0.17011340890186588,
        0,
        -0.9854244913293897,
        0,
        0,
        1,
        0,
        0,
        0.9854244913293897,
        0,
        0.17011340890186588,
        0,
        0,
        1.1510331630706787,
        -1.3263676166534424,
        1
      ],
      "name": "pSolid2"
    },
    {
      "mesh": 0,
      "name": "pSolid2_blinn1_0"
    },
    {
      "mesh": 1,
      "name": "pSolid2_lambert2_0"
    },
    {
      "mesh": 2,
      "name": "pSolid2_lambert1_0"
    }
  ],
  "scene": 0,
  "scenes": [
    {
      "name": "OSG_Scene",
      "nodes": [
        0
      ]
    }
  ]
}

